# xmcd
#
# Track frame offsets: 
#        150
#        4337
#        26710
#        41415
#        57980
#        75257
#        98490
#        113455
#        133682
#        154062
#        169827
#        183595
#        199505
#        210030
#        226635
#
# Disc length: 3239 seconds
#
# Revision: 0
# Processed by: cddbd v1.4PL0 Copyright (c) Steve Scherf et al.
# Submitted via: ExactAudioCopy v0.90b2
#
DISCID=a80ca50f
DTITLE=Mississippi John Hurt - Satisfying Blues
DYEAR=1900
DGENRE=Blues
TTITLE0=C-H-I-C-K-E-N Blues
TTITLE1=Monday Morning Blues
TTITLE2=Candy Man
TTITLE3=Lonesome Blues
TTITLE4=Nobody's Business But Mine
TTITLE5=The Angels Laid Him Away
TTITLE6=Baby What's Wrong With You
TTITLE7=Richland Women Blues
TTITLE8=Frankie and Albert
TTITLE9=Salty Dog
TTITLE10=Spike Driver's Blues
TTITLE11=Hot Time In The Old Town Tonight
TTITLE12=My Creole Belle
TTITLE13=Make Me a Pallet On Your Floor
TTITLE14=Coffee Blues
EXTD=
EXTT0=
EXTT1=
EXTT2=
EXTT3=
EXTT4=
EXTT5=
EXTT6=
EXTT7=
EXTT8=
EXTT9=
EXTT10=
EXTT11=
EXTT12=
EXTT13=
EXTT14=
PLAYORDER=
